<svg width="38" height="38" viewBox="0 0 38 38" fill="none" xmlns="http://www.w3.org/2000/svg">
<path d="M32.5685 30.2028L31.6819 29.3009L31.1625 29.8076L31.3399 30.5093L32.5685 30.2028ZM34.2 36.7338L33.8935 37.9625C34.1055 38.0153 34.3276 38.0123 34.5382 37.9539C34.7488 37.8955 34.9407 37.7835 35.0952 37.629C35.2497 37.4745 35.3616 37.2826 35.4201 37.072C35.4785 36.8614 35.4815 36.6393 35.4287 36.4272L34.2 36.7338ZM24.0667 34.2004L23.1699 33.3036L21.5891 34.887L23.7601 35.4291L24.0667 34.2004ZM24.13 34.1371L25.0243 35.0339C25.2091 34.8498 25.3326 34.613 25.3778 34.356C25.423 34.0991 25.3878 33.8344 25.2769 33.5982C25.166 33.362 24.9849 33.1658 24.7583 33.0365C24.5317 32.9071 24.2707 32.8509 24.0109 32.8755L24.13 34.1371ZM17.7333 0V6.33341H20.2667V0H17.7333ZM22.8 5.06673H15.2V7.60009H22.8V5.06673ZM38 20.2669C38 16.2356 36.3986 12.3693 33.548 9.51876C30.6975 6.66817 26.8313 5.06673 22.8 5.06673V7.60009C24.4634 7.60009 26.1105 7.92773 27.6473 8.5643C29.1841 9.20087 30.5805 10.1339 31.7567 11.3101C32.9329 12.4863 33.8659 13.8827 34.5025 15.4195C35.139 16.9563 35.4667 18.6035 35.4667 20.2669H38ZM33.4552 31.1072C34.8967 29.6936 36.0412 28.0064 36.8217 26.1444C37.6021 24.2824 38.0027 22.2858 38 20.2669H35.4667C35.4695 21.9495 35.1359 23.6132 34.4855 25.1651C33.8351 26.7169 32.8835 28.1231 31.6819 29.3009L33.4552 31.1072ZM35.4312 36.4272L33.7947 29.8937L31.3373 30.5068L32.9688 37.0378L35.4312 36.4272ZM23.7601 35.4291L33.8935 37.9625L34.5065 35.5051L24.3732 32.9717L23.7601 35.4291ZM23.2332 33.2428L23.1699 33.3036L24.9635 35.0947L25.0243 35.0339L23.2332 33.2428ZM22.8 35.4671C23.2889 35.4671 23.7728 35.4418 24.2491 35.3987L24.0109 32.8755C23.6084 32.914 23.2043 32.9334 22.8 32.9337V35.4671ZM15.2 35.4671H22.8V32.9337H15.2V35.4671ZM0 20.2669C0 24.2983 1.60142 28.1645 4.45197 31.0151C7.30253 33.8657 11.1687 35.4671 15.2 35.4671V32.9337C13.5366 32.9337 11.8895 32.6061 10.3527 31.9695C8.81588 31.333 7.41952 30.3999 6.24331 29.2237C3.86785 26.8482 2.53333 23.6264 2.53333 20.2669H0ZM15.2 5.06673C11.1687 5.06673 7.30253 6.66817 4.45197 9.51876C1.60142 12.3693 0 16.2356 0 20.2669H2.53333C2.53333 16.9075 3.86785 13.6856 6.24331 11.3101C8.61877 8.93463 11.8406 7.60009 15.2 7.60009V5.06673ZM19 20.2669C17.9922 20.2669 17.0256 19.8666 16.313 19.1539C15.6003 18.4413 15.2 17.4747 15.2 16.4669H12.6667C12.6667 18.1466 13.3339 19.7575 14.5217 20.9453C15.7094 22.133 17.3203 22.8003 19 22.8003V20.2669ZM22.8 16.4669C22.8 17.4747 22.3996 18.4413 21.687 19.1539C20.9744 19.8666 20.0078 20.2669 19 20.2669V22.8003C20.6797 22.8003 22.2906 22.133 23.4783 20.9453C24.6661 19.7575 25.3333 18.1466 25.3333 16.4669H22.8ZM19 12.6668C20.0078 12.6668 20.9744 13.0672 21.687 13.7798C22.3996 14.4925 22.8 15.459 22.8 16.4669H25.3333C25.3333 14.7871 24.6661 13.1762 23.4783 11.9885C22.2906 10.8007 20.6797 10.1335 19 10.1335V12.6668ZM19 10.1335C17.3203 10.1335 15.7094 10.8007 14.5217 11.9885C13.3339 13.1762 12.6667 14.7871 12.6667 16.4669H15.2C15.2 15.459 15.6003 14.4925 16.313 13.7798C17.0256 13.0672 17.9922 12.6668 19 12.6668V10.1335ZM19 30.4004C21.6955 30.4004 24.1731 29.463 26.1263 27.8999L24.5404 25.9239C23.0204 27.1399 21.0976 27.867 19 27.867V30.4004ZM11.8737 27.8999C13.8244 29.463 16.3071 30.4004 19 30.4004V27.867C16.9855 27.8708 15.0304 27.1851 13.4596 25.9239L11.8737 27.8999Z" fill="white"/>
</svg>
