<svg width="10" height="11" viewBox="0 0 10 11" fill="none" xmlns="http://www.w3.org/2000/svg">
<path d="M1.70014 9.12955H2.41608L7.32719 4.06103L6.61125 3.32214L1.70014 8.39066V9.12955ZM0.695312 10.1666V7.96288L7.32719 1.1314C7.42768 1.03634 7.53871 0.962882 7.6603 0.91103C7.78188 0.859178 7.90949 0.833252 8.04314 0.833252C8.17711 0.833252 8.3069 0.859178 8.43251 0.91103C8.55811 0.962882 8.66697 1.04066 8.75908 1.14436L9.4499 1.87029C9.55038 1.96535 9.62373 2.0777 9.66996 2.20733C9.71618 2.33696 9.73912 2.46659 9.73879 2.59622C9.73879 2.73449 9.71584 2.86636 9.66996 2.99184C9.62407 3.11733 9.55072 3.23175 9.4499 3.3351L2.83058 10.1666H0.695312ZM6.96294 3.69807L6.61125 3.32214L7.32719 4.06103L6.96294 3.69807Z" fill="#5D6C87"/>
</svg>
