<svg width="21" height="19" viewBox="0 0 21 19" fill="none" xmlns="http://www.w3.org/2000/svg">
<path d="M11.3626 3.07762C11.6042 2.95519 11.8941 2.97898 12.1125 3.13915L15.7063 5.77457C15.8909 5.90996 16 6.12522 16 6.35417C16 6.58312 15.8909 6.79838 15.7063 6.93377L12.4062 9.3538V13.3021C12.4062 13.699 12.0845 14.0208 11.6875 14.0208C11.2905 14.0208 10.9688 13.699 10.9688 13.3021V3.71875C10.9688 3.4479 11.121 3.20005 11.3626 3.07762Z" fill="black"/>
<path d="M8.96751 11.8477C9.35513 11.7621 9.59995 11.3785 9.51433 10.9909C9.42872 10.6032 9.0451 10.3584 8.65749 10.444C7.52676 10.6938 6.5287 11.1021 5.79464 11.635C5.07512 12.1574 4.5 12.887 4.5 13.7813C4.5 14.4121 4.79065 14.9589 5.20644 15.3959C5.6187 15.8291 6.18129 16.1865 6.82149 16.471C8.10371 17.0409 9.82471 17.375 11.6875 17.375C13.5503 17.375 15.2713 17.0409 16.5535 16.471C17.1937 16.1865 17.7563 15.8291 18.1686 15.3959C18.5844 14.9589 18.875 14.4121 18.875 13.7813C18.875 12.887 18.2999 12.1574 17.5804 11.635C16.8463 11.1021 15.8482 10.6938 14.7175 10.444C14.3299 10.3584 13.9463 10.6032 13.8607 10.9909C13.7751 11.3785 14.0199 11.7621 14.4075 11.8477C15.4067 12.0684 16.2055 12.4133 16.7359 12.7983C17.2807 13.1939 17.4375 13.5468 17.4375 13.7813C17.4375 13.9444 17.3661 14.1538 17.1272 14.4049C16.8848 14.6596 16.5001 14.9217 15.9697 15.1574C14.9107 15.6281 13.3973 15.9375 11.6875 15.9375C9.9777 15.9375 8.46432 15.6281 7.40531 15.1574C6.87491 14.9217 6.49016 14.6596 6.24776 14.4049C6.00887 14.1538 5.9375 13.9444 5.9375 13.7813C5.9375 13.5468 6.09427 13.1939 6.63913 12.7983C7.16945 12.4133 7.96827 12.0684 8.96751 11.8477Z" fill="black"/>
</svg>
