<svg width="20" height="19" viewBox="0 0 20 19" fill="none" xmlns="http://www.w3.org/2000/svg">
<path d="M10 2.375C10.3316 2.375 10.6495 2.50011 10.8839 2.72281C11.1184 2.94551 11.25 3.24756 11.25 3.5625C11.25 3.87744 11.1184 4.17949 10.8839 4.40219C10.6495 4.62489 10.3316 4.75 10 4.75C9.66853 4.75 9.35058 4.62489 9.11616 4.40219C8.88174 4.17949 8.75005 3.87744 8.75005 3.5625C8.75005 3.24756 8.88174 2.94551 9.11616 2.72281C9.35058 2.50011 9.66853 2.375 10 2.375ZM10 1.1875C9.33701 1.1875 8.70112 1.43772 8.23228 1.88312C7.76344 2.32852 7.50005 2.93261 7.50005 3.5625C7.50005 4.19239 7.76344 4.79648 8.23228 5.24188C8.70112 5.68728 9.33701 5.9375 10 5.9375C10.6631 5.9375 11.299 5.68728 11.7678 5.24188C12.2367 4.79648 12.5 4.19239 12.5 3.5625C12.5 2.93261 12.2367 2.32852 11.7678 1.88312C11.299 1.43772 10.6631 1.1875 10 1.1875ZM11.5375 6.51937H8.46255C7.87576 6.51937 7.313 6.74082 6.89807 7.135C6.48315 7.52918 6.25005 8.0638 6.25005 8.62125V11.7562C6.23639 12.0862 6.35977 12.4081 6.5936 12.6524C6.82743 12.8968 7.15298 13.0441 7.50005 13.0625V15.8294C7.50005 16.2073 7.65808 16.5698 7.93939 16.837C8.22069 17.1042 8.60222 17.2544 9.00005 17.2544H11C11.2013 17.2545 11.4005 17.2161 11.5859 17.1415C11.7712 17.067 11.9388 16.9577 12.0788 16.8203C12.2187 16.683 12.3282 16.5202 12.4005 16.3418C12.4729 16.1634 12.5068 15.973 12.5 15.7819V13.0625C12.8471 13.0441 13.1727 12.8968 13.4065 12.6524C13.6403 12.4081 13.7637 12.0862 13.75 11.7562V8.62125C13.75 8.0638 13.5169 7.52918 13.102 7.135C12.6871 6.74082 12.1243 6.51937 11.5375 6.51937ZM7.50005 11.875V8.62125C7.49837 8.50073 7.52212 8.38111 7.56989 8.26945C7.61767 8.15779 7.6885 8.05636 7.77821 7.97113C7.86793 7.8859 7.9747 7.81861 8.09224 7.77322C8.20977 7.72784 8.33569 7.70528 8.46255 7.70687H11.5375C11.6644 7.70528 11.7903 7.72784 11.9079 7.77322C12.0254 7.81861 12.1322 7.8859 12.2219 7.97113C12.3116 8.05636 12.3824 8.15779 12.4302 8.26945C12.478 8.38111 12.5017 8.50073 12.5 8.62125V11.875H11.25V15.8056C11.25 15.8686 11.2237 15.929 11.1768 15.9736C11.1299 16.0181 11.0664 16.0431 11 16.0431H9.00005C8.93374 16.0431 8.87015 16.0181 8.82327 15.9736C8.77639 15.929 8.75005 15.8686 8.75005 15.8056V11.875H7.50005Z" fill="black"/>
</svg>
